<svg width="100" height="100" viewBox="0 0 100 100" fill="none" xmlns="http://www.w3.org/2000/svg">
<g clip-path="url(#clip0_240_2143)">
<path d="M85 0H15C6.71573 0 0 6.71573 0 15V85C0 93.2843 6.71573 100 15 100H85C93.2843 100 100 93.2843 100 85V15C100 6.71573 93.2843 0 85 0Z" fill="#3B5998"/>
<path d="M56.0547 89.0625V30.6641C56.0547 26.5625 57.2266 23.8281 62.8906 23.8281H70.3125V11.5234C68.9453 11.3281 64.6484 10.9375 59.5703 10.9375C49.0234 10.9375 41.7969 17.3828 41.7969 29.2969V89.0625M69.7266 39.4531H29.6875V53.5156H67.9688" fill="white"/>
</g>
<defs>
<clipPath id="clip0_240_2143">
<rect width="100" height="100" fill="white"/>
</clipPath>
</defs>
</svg>
