<svg width="100" height="100" viewBox="0 0 100 100" fill="none" xmlns="http://www.w3.org/2000/svg">
<g clip-path="url(#clip0_240_2139)">
<path d="M25.3574 99.6463C19.4103 99.3759 16.1797 98.3862 14.031 97.5481C11.1838 96.4395 9.15386 95.1199 7.01697 92.986C4.88008 90.8521 3.55752 88.8222 2.4549 85.975C1.61679 83.8262 0.627099 80.5956 0.356644 74.6486C0.0594407 68.22 0 66.2912 0 50.0045C0 33.7177 0.0653847 31.7918 0.353672 25.3574C0.624127 19.4103 1.61976 16.1857 2.45193 14.031C3.5605 11.1838 4.88305 9.15386 7.014 7.014C9.14792 4.88008 11.1778 3.55455 14.028 2.45193C16.1768 1.61381 19.4074 0.624127 25.3544 0.353672C31.7859 0.0594407 33.7177 0 49.9985 0C66.2853 0 68.2111 0.0653847 74.6456 0.353672C80.5926 0.624127 83.8173 1.61976 85.972 2.45193C88.8192 3.55455 90.8491 4.88008 92.986 7.014C95.1229 9.14792 96.4395 11.1808 97.5481 14.028C98.3862 16.1768 99.3759 19.4074 99.6463 25.3544C99.9406 31.7889 100 33.7147 100 50.0015C100 66.2823 99.9406 68.2141 99.6463 74.6486C99.3759 80.5956 98.3802 83.8262 97.5481 85.975C96.4395 88.8222 95.1199 90.8521 92.986 92.986C90.8521 95.1199 88.8192 96.4395 85.972 97.5481C83.8232 98.3862 80.5926 99.3759 74.6456 99.6463C68.2171 99.9406 66.2853 100 49.9985 100C33.7177 100 31.7859 99.9435 25.3574 99.6463Z" fill="url(#paint0_radial_240_2139)"/>
<path d="M25.3574 99.6463C19.4103 99.3759 16.1797 98.3862 14.031 97.5481C11.1838 96.4395 9.15386 95.1199 7.01697 92.986C4.88008 90.8521 3.55752 88.8222 2.4549 85.975C1.61679 83.8262 0.627099 80.5956 0.356644 74.6486C0.0594407 68.22 0 66.2912 0 50.0045C0 33.7177 0.0653847 31.7918 0.353672 25.3574C0.624127 19.4103 1.61976 16.1857 2.45193 14.031C3.5605 11.1838 4.88305 9.15386 7.014 7.014C9.14792 4.88008 11.1778 3.55455 14.028 2.45193C16.1768 1.61381 19.4074 0.624127 25.3544 0.353672C31.7859 0.0594407 33.7177 0 49.9985 0C66.2853 0 68.2111 0.0653847 74.6456 0.353672C80.5926 0.624127 83.8173 1.61976 85.972 2.45193C88.8192 3.55455 90.8491 4.88008 92.986 7.014C95.1229 9.14792 96.4395 11.1808 97.5481 14.028C98.3862 16.1768 99.3759 19.4074 99.6463 25.3544C99.9406 31.7889 100 33.7147 100 50.0015C100 66.2823 99.9406 68.2141 99.6463 74.6486C99.3759 80.5956 98.3802 83.8262 97.5481 85.975C96.4395 88.8222 95.1199 90.8521 92.986 92.986C90.8521 95.1199 88.8192 96.4395 85.972 97.5481C83.8232 98.3862 80.5926 99.3759 74.6456 99.6463C68.2171 99.9406 66.2853 100 49.9985 100C33.7177 100 31.7859 99.9435 25.3574 99.6463Z" fill="url(#paint1_radial_240_2139)"/>
<path d="M37.7225 50.2131C37.7225 43.3742 43.2651 37.8286 50.104 37.8286C56.943 37.8286 62.4885 43.3742 62.4885 50.2131C62.4885 57.052 56.943 62.5976 50.104 62.5976C43.2651 62.5976 37.7225 57.052 37.7225 50.2131ZM31.0277 50.2131C31.0277 60.749 39.5682 69.2894 50.104 69.2894C60.6399 69.2894 69.1803 60.749 69.1803 50.2131C69.1803 39.6772 60.6399 31.1368 50.104 31.1368C39.5682 31.1368 31.028 39.6766 31.028 50.2131M65.4778 30.3804C65.4774 31.2621 65.7385 32.1242 66.2281 32.8575C66.7177 33.5908 67.4137 34.1625 68.2281 34.5002C69.0426 34.838 69.9389 34.9266 70.8038 34.7549C71.6686 34.5833 72.4632 34.159 73.0869 33.5358C73.7106 32.9126 74.1355 32.1184 74.3079 31.2537C74.4802 30.389 74.3923 29.4926 74.0552 28.6778C73.7181 27.8631 73.147 27.1666 72.4141 26.6765C71.6811 26.1863 70.8193 25.9245 69.9376 25.9242H69.9358C68.7539 25.9247 67.6206 26.3943 66.7847 27.2299C65.9489 28.0654 65.4788 29.1986 65.4778 30.3804ZM35.0953 80.4529C31.4732 80.288 29.5046 79.6847 28.1963 79.175C26.4618 78.4997 25.2242 77.6955 23.9231 76.3961C22.6219 75.0967 21.8165 73.8604 21.1442 72.1259C20.6342 70.8182 20.0309 68.8489 19.8663 65.2269C19.6862 61.311 19.6502 60.1346 19.6502 50.2137C19.6502 40.2928 19.6891 39.1197 19.8663 35.2005C20.0312 31.5785 20.639 29.613 21.1442 28.3015C21.8195 26.567 22.6237 25.3295 23.9231 24.0283C25.2225 22.7271 26.4588 21.9217 28.1963 21.2494C29.504 20.7394 31.4732 20.1361 35.0953 19.9715C39.0112 19.7914 40.1875 19.7554 50.104 19.7554C60.0205 19.7554 61.198 19.7937 65.1173 19.9721C68.7393 20.137 70.7047 20.7448 72.0162 21.25C73.7507 21.9223 74.9883 22.7295 76.2894 24.0289C77.5906 25.3283 78.393 26.5676 79.0683 28.3021C79.5783 29.6098 80.1816 31.579 80.3463 35.2011C80.5264 39.1203 80.5623 40.2933 80.5623 50.2143C80.5623 60.1352 80.5264 61.3083 80.3463 65.2275C80.1813 68.8495 79.575 70.8182 79.0683 72.1265C78.393 73.861 77.5888 75.0985 76.2894 76.3967C74.9901 77.6949 73.7507 78.5003 72.0162 79.1756C70.7085 79.6856 68.7393 80.2889 65.1173 80.4535C61.2013 80.6336 60.025 80.6696 50.104 80.6696C40.1831 80.6696 39.01 80.6336 35.0953 80.4535M34.7877 13.2877C30.8328 13.4678 28.1303 14.0949 25.7702 15.0132C23.3275 15.9616 21.2569 17.2339 19.1892 19.2983C17.1216 21.3627 15.8525 23.4336 14.9042 25.8793C13.9858 28.2409 13.3587 30.9418 13.1786 34.8967C12.9955 38.8579 12.9536 40.1242 12.9536 50.2131C12.9536 60.302 12.9955 61.5684 13.1786 65.5295C13.3587 69.4847 13.9858 72.1853 14.9042 74.5469C15.8525 76.9896 17.1219 79.0644 19.1892 81.1279C21.2566 83.1914 23.3245 84.4619 25.7702 85.413C28.1348 86.3313 30.8328 86.9584 34.7877 87.1385C38.7509 87.3186 40.0152 87.3635 50.104 87.3635C60.1929 87.3635 61.4593 87.3216 65.4204 87.1385C69.3756 86.9584 72.0763 86.3313 74.4379 85.413C76.8806 84.4619 78.9512 83.1923 81.0188 81.1279C83.0865 79.0635 84.3529 76.9896 85.3039 74.5469C86.2223 72.1853 86.8523 69.4844 87.0295 65.5295C87.2096 61.5654 87.2515 60.302 87.2515 50.2131C87.2515 40.1242 87.2096 38.8579 87.0295 34.8967C86.8494 30.9415 86.2223 28.2394 85.3039 25.8793C84.3529 23.4366 83.0832 21.366 81.0188 19.2983C78.9545 17.2307 76.8806 15.9616 74.4408 15.0132C72.0763 14.0949 69.3753 13.4648 65.4234 13.2877C61.4617 13.1067 60.1959 13.0627 50.1085 13.0627C40.0211 13.0627 38.7524 13.1046 34.7891 13.2877" fill="white"/>
</g>
<defs>
<radialGradient id="paint0_radial_240_2139" cx="0" cy="0" r="1" gradientUnits="userSpaceOnUse" gradientTransform="translate(6.4719 97.8093) scale(126.963)">
<stop offset="0.09" stop-color="#FA8F21"/>
<stop offset="0.78" stop-color="#D82D7E"/>
</radialGradient>
<radialGradient id="paint1_radial_240_2139" cx="0" cy="0" r="1" gradientUnits="userSpaceOnUse" gradientTransform="translate(69.2665 94.5983) scale(111.729)">
<stop offset="0.64" stop-color="#8C3AAA" stop-opacity="0"/>
<stop offset="1" stop-color="#8C3AAA"/>
</radialGradient>
<clipPath id="clip0_240_2139">
<rect width="100" height="100" fill="white"/>
</clipPath>
</defs>
</svg>
