<svg width="100" height="100" viewBox="0 0 100 100" fill="none" xmlns="http://www.w3.org/2000/svg">
<g clip-path="url(#clip0_240_2146)">
<path d="M85 0H15C6.71573 0 0 6.71573 0 15V85C0 93.2843 6.71573 100 15 100H85C93.2843 100 100 93.2843 100 85V15C100 6.71573 93.2843 0 85 0Z" fill="#1DA1F2"/>
<path d="M85.3516 29.6875C83.0078 30.8594 80.2734 31.6406 77.5391 32.0312C80.4688 30.2734 82.6172 27.5391 83.7891 24.2187C81.0547 25.7812 78.125 26.9531 75 27.5391C72.8746 25.3622 70.1004 23.9333 67.094 23.4669C64.0875 23.0005 61.0109 23.5217 58.3258 24.9522C55.6407 26.3828 53.4919 28.6456 52.2021 31.4011C50.9122 34.1566 50.5507 37.256 51.1719 40.2344C40.2344 39.6484 29.6875 34.5703 22.8516 25.7812C21.9214 27.2669 21.2945 28.922 21.0071 30.6511C20.7196 32.3802 20.7773 34.149 21.1767 35.8557C21.5761 37.5624 22.3095 39.1732 23.3344 40.5951C24.3593 42.0171 25.6556 43.222 27.1484 44.1406C25 44.1406 22.8516 43.75 20.8984 42.7734C21.0938 49.2187 25.5859 54.8828 31.8359 56.25C29.8828 56.8359 27.7344 56.8359 25.5859 56.4453C27.5391 62.1094 32.8125 66.0156 38.6719 66.2109C33.0078 70.8984 25.3906 73.0469 18.1641 71.875C24.203 75.9047 31.2498 78.1624 38.5061 78.3925C45.7623 78.6225 52.938 76.8156 59.22 73.1765C65.502 69.5374 70.6392 64.2116 74.0496 57.8025C77.4599 51.3935 79.007 44.1573 78.5156 36.914C81.25 34.9609 83.5938 32.6172 85.3516 29.6875Z" fill="white"/>
</g>
<defs>
<clipPath id="clip0_240_2146">
<rect width="100" height="100" fill="white"/>
</clipPath>
</defs>
</svg>
