<svg width="100" height="100" viewBox="0 0 100 100" fill="none" xmlns="http://www.w3.org/2000/svg">
<g clip-path="url(#clip0_240_2149)">
<path d="M85 0H15C6.71573 0 0 6.71573 0 15V85C0 93.2843 6.71573 100 15 100H85C93.2843 100 100 93.2843 100 85V15C100 6.71573 93.2843 0 85 0Z" fill="#ED1D24"/>
<path d="M83.3984 33.0078C82.6172 30.0781 80.0781 27.7344 77.1484 26.9531C70.5078 25.1953 30.4687 25 22.8515 26.9531C19.9219 27.7344 17.3828 30.0781 16.6015 33.0078C14.8437 40.4297 14.6484 59.375 16.6015 66.9922C17.3828 69.9219 19.9219 72.2656 22.8515 73.0469C29.8828 75 69.9219 75 77.1484 73.0469C80.0781 72.2656 82.6172 69.9219 83.3984 66.9922C85.1562 59.9609 85.1562 40.2344 83.3984 33.0078Z" fill="white"/>
<path d="M42.9688 39.6484V60.3516L61.1328 50" fill="#ED1D24"/>
</g>
<defs>
<clipPath id="clip0_240_2149">
<rect width="100" height="100" fill="white"/>
</clipPath>
</defs>
</svg>
